<svg xmlns="http://www.w3.org/2000/svg" version="1.1" xmlns:xlink="http://www.w3.org/1999/xlink" xmlns:svgjs="http://svgjs.dev/svgjs" width="1500" height="939" viewBox="0 0 1500 939"><g transform="matrix(1,0,0,1,-0.9090909090909918,-1.5145161290323017)"><svg viewBox="0 0 396 248" data-background-color="#ffffff" preserveAspectRatio="xMidYMid meet" height="939" width="1500" xmlns="http://www.w3.org/2000/svg" xmlns:xlink="http://www.w3.org/1999/xlink"><g id="tight-bounds" transform="matrix(1,0,0,1,0.2400000000000091,0.4000000000000057)"><svg viewBox="0 0 395.52 247.2" height="247.2" width="395.52"><g><svg></svg></g><g><svg viewBox="0 0 395.52 247.2" height="247.2" width="395.52"><mask id="6f1beb08-786a-4368-88d7-3afe6d08aa4b"><rect width="640" height="400" fill="white"></rect><g transform="matrix(1,0,0,1,148.49521050410956,37.08)"><svg viewBox="0 0 98.52957899178084 173.04" height="173.04" width="98.52957899178084"><g><svg viewBox="0 0 98.52957899178084 173.04" height="173.04" width="98.52957899178084"><g><svg viewBox="0 0 121.26476908829954 212.9680838765156" height="173.04" width="98.52957899178084"><g><svg viewBox="0 0 121.26476908829954 212.9680838765156" height="212.9680838765156" width="121.26476908829954"><g id="SvgjsG3129"><svg viewBox="0 0 121.26476908829954 212.9680838765156" height="212.9680838765156" width="121.26476908829954" id="SvgjsSvg3128"><g><svg viewBox="0 0 121.26476908829954 171.9706128" height="171.9706128" width="121.26476908829954"><g transform="matrix(1,0,0,1,0,0)"><svg width="121.26476908829954" viewBox="-0.5 -32.05 23.6 33.05" height="171.9706128" data-palette-color="#c9378b"><path d="M22.1-7.15L22.1 0 1.7 0 1.5-4.6 10.65-23.3 1-23.3 0.5-31.05 21.6-31.05 21.85-26.15 13.15-7.15 22.1-7.15Z" opacity="1" transform="matrix(1,0,0,1,0,0)" fill="black" class="wordmark-text-0" id="SvgjsPath3127" stroke-width="1" stroke="black" stroke-linejoin="round"></path></svg></g></svg></g><g transform="matrix(1,0,0,1,60.13444439719189,211.3020347259883)"><svg viewBox="0 0 0.9958802939157566 1.6660491505273012" height="1.6660491505273012" width="0.9958802939157566"><g transform="matrix(1,0,0,1,0,0)"><svg width="0.9958802939157566" viewBox="-0.25 -35.55 22.25 36.55" height="1.6660491505273012" data-palette-color="#000000"><path d="M2.05-34.55L20.85-34.55 20.85-29.6 7.65-5.2 21-5.2 20.4 0 0.75 0 0.75-4.9 14-29.45 2.05-29.45 2.05-34.55Z" opacity="1" transform="matrix(1,0,0,1,0,0)" fill="black" class="slogan-text-1" id="SvgjsPath3126" stroke-width="1" stroke="black" stroke-linejoin="round"></path></svg></g></svg></g></svg></g></svg></g><g></g></svg></g></svg></g></svg></g></mask><g transform="matrix(1,0,0,1,148.49521050410956,37.08)"><svg viewBox="0 0 98.52957899178084 173.04" height="173.04" width="98.52957899178084"><g><svg viewBox="0 0 98.52957899178084 173.04" height="173.04" width="98.52957899178084"><g><svg viewBox="0 0 121.26476908829954 212.9680838765156" height="173.04" width="98.52957899178084"><g><svg viewBox="0 0 121.26476908829954 212.9680838765156" height="212.9680838765156" width="121.26476908829954"><g id="textblocktransform"><svg viewBox="0 0 121.26476908829954 212.9680838765156" height="212.9680838765156" width="121.26476908829954" id="textblock"><g><svg viewBox="0 0 121.26476908829954 171.9706128" height="171.9706128" width="121.26476908829954"><g transform="matrix(1,0,0,1,0,0)"><svg width="121.26476908829954" viewBox="-0.5 -32.05 23.6 33.05" height="171.9706128" data-palette-color="#c9378b"><path d="M22.1-7.15L22.1 0 1.7 0 1.5-4.6 10.65-23.3 1-23.3 0.5-31.05 21.6-31.05 21.85-26.15 13.15-7.15 22.1-7.15Z" opacity="1" transform="matrix(1,0,0,1,0,0)" fill="#c9378b" class="wordmark-text-0" data-fill-palette-color="primary" id="text-0"></path></svg></g></svg></g><g transform="matrix(1,0,0,1,60.13444439719189,211.3020347259883)"><svg viewBox="0 0 0.9958802939157566 1.6660491505273012" height="1.6660491505273012" width="0.9958802939157566"><g transform="matrix(1,0,0,1,0,0)"><svg width="0.9958802939157566" viewBox="-0.25 -35.55 22.25 36.55" height="1.6660491505273012" data-palette-color="#000000"><path d="M2.05-34.55L20.85-34.55 20.85-29.6 7.65-5.2 21-5.2 20.4 0 0.75 0 0.75-4.9 14-29.45 2.05-29.45 2.05-34.55Z" opacity="1" transform="matrix(1,0,0,1,0,0)" fill="#000000" class="slogan-text-1" data-fill-palette-color="secondary" id="text-1"></path></svg></g></svg></g></svg></g></svg></g><g></g></svg></g></svg></g></svg></g><g mask="url(#6f1beb08-786a-4368-88d7-3afe6d08aa4b)"><g transform="matrix(2.7461802690412873, 0, 0, 2.7461802690412873, 75.16603184765192, 1)"><svg xmlns="http://www.w3.org/2000/svg" xmlns:xlink="http://www.w3.org/1999/xlink" version="1.1" x="0" y="0" viewBox="0.35833249999999595 0.3587183000000067 89.28326340000001 89.2876563" enable-background="new 0 0 90 90" xml:space="preserve" height="89.2876563" width="89.28326340000001" class="icon-none" data-fill-palette-color="accent" id="none"><polygon points="57.928,58.169 57.875,76.027 45.397,63.548 45.397,45.639 " fill="#f6caec" data-fill-palette-color="accent"></polygon><polygon points="76.027,57.875 58.475,57.927 45.826,45.279 63.432,45.279 " fill="#f6caec" data-fill-palette-color="accent"></polygon><polygon points="76.027,32.125 63.432,44.721 45.707,44.721 58.355,32.073 " fill="#f6caec" data-fill-palette-color="accent"></polygon><polygon points="44.838,45.59 44.838,63.314 32.125,76.027 32.074,58.355 " fill="#f6caec" data-fill-palette-color="accent"></polygon><polygon points="57.928,31.712 45.397,44.243 45.397,26.452 57.875,13.974 " fill="#f6caec" data-fill-palette-color="accent"></polygon><polygon points="44.838,26.687 44.838,44.291 32.074,31.526 32.125,13.974 " fill="#f6caec" data-fill-palette-color="accent"></polygon><polygon points="44.479,44.721 26.569,44.721 13.974,32.125 31.832,32.073 " fill="#f6caec" data-fill-palette-color="accent"></polygon><polygon points="44.36,45.279 31.712,57.927 13.974,57.875 26.569,45.279 " fill="#f6caec" data-fill-palette-color="accent"></polygon><rect x="58.48" y="58.48" width="18.049" height="18.049" fill="#f6caec" data-fill-palette-color="accent"></rect><polygon points="76.527,13.474 76.527,31.516 58.914,31.516 58.912,31.518 58.484,31.516 58.484,13.474 " fill="#f6caec" data-fill-palette-color="accent"></polygon><polygon points="31.518,30.971 31.516,31.516 13.474,31.516 13.474,13.474 31.516,13.474 31.516,30.968 " fill="#f6caec" data-fill-palette-color="accent"></polygon><rect x="13.471" y="58.48" width="18.05" height="18.049" fill="#f6caec" data-fill-palette-color="accent"></rect><rect x="67.864" y="35.981" transform="matrix(0.7071 -0.7071 0.7071 0.7071 -9.3022 67.5465)" width="18.042" height="18.042" fill="#f6caec" data-fill-palette-color="accent"></rect><rect x="35.979" y="4.094" transform="matrix(0.7071 -0.7071 0.7071 0.7071 3.9068 35.6621)" width="18.042" height="18.042" fill="#f6caec" data-fill-palette-color="accent"></rect><rect x="4.095" y="35.98" transform="matrix(0.7071 -0.7071 0.7071 0.7071 -27.9787 22.4536)" width="18.041" height="18.041" fill="#f6caec" data-fill-palette-color="accent"></rect><rect x="35.98" y="67.865" transform="matrix(0.7071 -0.7071 0.7071 0.7071 -41.1877 54.3437)" width="18.04" height="18.041" fill="#f6caec" data-fill-palette-color="accent"></rect></svg></g></g></svg></g><defs></defs></svg><rect width="395.52" height="247.2" fill="none" stroke="none" visibility="hidden"></rect></g></svg></g></svg>